<svg width="196" height="44" viewBox="0 0 196 44" fill="none" xmlns="http://www.w3.org/2000/svg">
<path d="M34.4 39H29.48L29.44 20.44L20.24 35.8H17.92L8.72 20.68V39H3.76V11H8.04L19.16 29.56L30.08 11H34.36L34.4 39ZM61.4831 39L51.6031 27.28L47.1631 31.84V39H41.9631V11H47.1631V25.36L61.0031 11H66.8431L55.0831 23.52L67.5631 39H61.4831ZM79.1978 39.4C74.8378 39.4 70.4778 38.04 68.1578 36.04L69.9578 32C72.1978 33.8 75.7578 35.08 79.1978 35.08C83.5578 35.08 85.3978 33.52 85.3978 31.44C85.3978 25.4 68.7578 29.36 68.7578 18.96C68.7578 14.44 72.3578 10.6 80.0378 10.6C83.3978 10.6 86.9178 11.48 89.3578 13.08L87.7178 17.12C85.1978 15.64 82.4378 14.92 79.9978 14.92C75.6778 14.92 73.9178 16.6 73.9178 18.72C73.9178 24.68 90.5178 20.8 90.5178 31.08C90.5178 35.56 86.8778 39.4 79.1978 39.4Z" fill="white"/>
<path d="M106.12 36.1C104.04 36.1 102.04 35.32 101.02 34.2L101.48 33.44C102.44 34.44 104.22 35.2 106.1 35.2C108.9 35.2 110.14 33.98 110.14 32.46C110.14 28.26 101.4 30.78 101.4 25.62C101.4 23.64 102.92 21.9 106.36 21.9C107.9 21.9 109.5 22.38 110.58 23.16L110.2 23.98C109.04 23.18 107.62 22.8 106.36 22.8C103.64 22.8 102.42 24.06 102.42 25.6C102.42 29.8 111.16 27.32 111.16 32.4C111.16 34.38 109.58 36.1 106.12 36.1ZM114.808 23.02C114.348 23.02 113.988 22.66 113.988 22.22C113.988 21.78 114.348 21.4 114.808 21.4C115.268 21.4 115.628 21.76 115.628 22.2C115.628 22.66 115.268 23.02 114.808 23.02ZM114.308 36V25.56H115.308V36H114.308ZM122.162 36.08C120.442 36.08 118.802 35.5 117.982 34.74L118.442 33.94C119.242 34.62 120.662 35.2 122.202 35.2C124.402 35.2 125.282 34.42 125.282 33.24C125.282 30.2 118.362 32.44 118.362 28.34C118.362 26.76 119.682 25.48 122.322 25.48C123.642 25.48 125.082 25.88 125.902 26.5L125.442 27.3C124.562 26.66 123.422 26.36 122.302 26.36C120.262 26.36 119.362 27.2 119.362 28.32C119.362 31.46 126.282 29.24 126.282 33.22C126.282 34.92 124.822 36.08 122.162 36.08ZM133.833 34.64L134.253 35.34C133.733 35.84 132.893 36.08 132.113 36.08C130.273 36.08 129.273 35 129.273 33.24V26.42H127.353V25.56H129.273V23.28H130.273V25.56H133.593V26.42H130.273V33.14C130.273 34.48 130.933 35.22 132.213 35.22C132.833 35.22 133.413 35.02 133.833 34.64ZM145.511 30.74C145.511 30.82 145.491 30.92 145.491 31.02H136.511C136.611 33.5 138.431 35.18 140.931 35.18C142.251 35.18 143.471 34.7 144.271 33.72L144.851 34.38C143.931 35.5 142.491 36.08 140.911 36.08C137.751 36.08 135.531 33.88 135.531 30.78C135.531 27.68 137.671 25.48 140.531 25.48C143.391 25.48 145.511 27.64 145.511 30.74ZM140.531 26.36C138.311 26.36 136.691 27.96 136.531 30.24H144.531C144.391 27.98 142.751 26.36 140.531 26.36ZM161.604 25.48C164.124 25.48 165.764 26.98 165.764 29.9V36H164.764V29.98C164.764 27.62 163.544 26.38 161.504 26.38C159.144 26.38 157.684 27.96 157.684 30.44V36H156.684V29.98C156.684 27.62 155.464 26.38 153.424 26.38C151.064 26.38 149.604 27.96 149.604 30.44V36H148.604V25.56H149.564V27.8C150.244 26.34 151.664 25.48 153.564 25.48C155.444 25.48 156.824 26.34 157.384 28C158.064 26.48 159.584 25.48 161.604 25.48ZM173.413 25.48C175.993 25.48 177.433 26.8 177.433 29.38V36H176.473V34.14C175.813 35.34 174.533 36.08 172.713 36.08C170.373 36.08 168.953 34.88 168.953 33.1C168.953 31.52 169.953 30.18 172.853 30.18H176.433V29.34C176.433 27.4 175.373 26.36 173.333 26.36C171.893 26.36 170.593 26.9 169.733 27.68L169.233 26.96C170.273 26.04 171.793 25.48 173.413 25.48ZM172.853 35.26C174.613 35.26 175.833 34.42 176.433 32.92V30.96H172.873C170.713 30.96 169.953 31.86 169.953 33.06C169.953 34.42 171.013 35.26 172.853 35.26ZM184.194 36.08C182.474 36.08 180.834 35.5 180.014 34.74L180.474 33.94C181.274 34.62 182.694 35.2 184.234 35.2C186.434 35.2 187.314 34.42 187.314 33.24C187.314 30.2 180.394 32.44 180.394 28.34C180.394 26.76 181.714 25.48 184.354 25.48C185.674 25.48 187.114 25.88 187.934 26.5L187.474 27.3C186.594 26.66 185.454 26.36 184.334 26.36C182.294 26.36 181.394 27.2 181.394 28.32C181.394 31.46 188.314 29.24 188.314 33.22C188.314 34.92 186.854 36.08 184.194 36.08Z" fill="white"/>
</svg>
